<svg id="svg" version="1.1" xmlns="http://www.w3.org/2000/svg" xmlns:xlink="http://www.w3.org/1999/xlink" width="400" height="282.8559213339034" viewBox="0, 0, 400,282.8559213339034"><g id="svgg"><path id="path0" d="M141.000 19.500 C 101.606 21.910,70.662 34.641,56.836 54.126 C 51.996 60.948,49.081 69.209,49.081 76.107 L 49.081 77.982 64.640 77.982 L 80.199 77.982 80.273 77.597 C 80.314 77.386,80.548 75.902,80.793 74.299 C 85.580 42.981,108.712 23.246,142.850 21.355 C 165.670 20.092,183.663 25.584,197.339 37.987 C 200.215 40.596,205.216 46.332,205.216 47.024 C 205.216 47.230,200.682 47.369,193.758 47.375 C 187.814 47.381,187.207 47.407,187.516 47.643 C 188.715 48.560,234.496 78.322,234.604 78.255 C 234.678 78.209,238.658 72.927,243.448 66.515 C 248.239 60.104,253.439 53.147,255.002 51.056 L 257.846 47.252 247.009 47.156 L 236.172 47.060 233.990 45.446 C 213.649 30.400,190.681 22.057,163.232 19.740 C 159.461 19.422,144.855 19.264,141.000 19.500 M223.502 98.803 L 215.391 110.389 215.306 113.895 L 215.220 117.401 212.313 117.452 L 209.406 117.504 199.316 131.717 C 193.767 139.535,188.933 146.341,188.575 146.843 L 187.925 147.755 200.380 147.755 L 212.836 147.755 211.519 135.571 C 210.795 128.869,210.155 123.021,210.097 122.574 L 209.992 121.761 212.991 121.761 C 214.640 121.761,215.990 121.788,215.990 121.820 C 215.990 121.878,217.681 137.583,218.413 144.320 L 218.792 147.811 238.202 147.693 C 248.878 147.628,257.644 147.543,257.683 147.504 C 257.723 147.465,257.054 142.099,256.198 135.580 C 255.341 129.062,253.602 115.802,252.333 106.114 C 251.064 96.426,249.980 88.211,249.923 87.858 L 249.820 87.217 240.716 87.217 L 231.613 87.217 223.502 98.803 M48.332 88.970 C 48.098 89.746,44.165 102.963,39.594 118.341 C 35.023 133.720,31.175 146.629,31.043 147.029 L 30.803 147.757 48.008 147.714 L 65.212 147.670 68.094 138.179 C 69.679 132.959,71.583 126.687,72.324 124.241 C 77.299 107.834,83.343 87.952,83.410 87.773 C 83.475 87.602,79.947 87.559,66.125 87.559 L 48.759 87.559 48.332 88.970 M83.555 104.363 C 77.811 123.226,70.576 146.948,70.381 147.560 L 70.252 147.962 73.732 147.886 C 84.424 147.651,97.397 141.991,105.237 134.140 C 115.341 124.022,118.631 107.740,112.614 97.630 C 108.764 91.161,101.055 87.553,91.099 87.561 L 88.670 87.563 83.555 104.363 M181.647 99.540 C 174.562 101.774,168.743 103.628,168.715 103.660 C 168.327 104.108,159.485 135.250,159.422 136.390 C 159.121 141.793,163.062 145.656,170.766 147.513 C 172.211 147.861,178.993 148.434,179.145 148.221 C 179.160 148.200,181.902 138.833,185.240 127.405 L 191.309 106.627 195.085 106.541 C 197.161 106.494,198.894 106.417,198.935 106.370 C 199.037 106.253,199.914 103.913,199.914 103.759 C 199.914 103.690,198.183 103.634,196.067 103.634 C 193.950 103.634,192.219 103.606,192.219 103.571 C 192.219 103.536,192.754 101.711,193.409 99.516 C 194.064 97.321,194.583 95.515,194.563 95.502 C 194.544 95.490,188.731 97.307,181.647 99.540 M295.596 103.068 C 282.583 103.927,271.949 111.662,268.015 123.130 C 263.486 136.331,268.164 145.488,280.376 147.325 C 290.875 148.905,302.736 144.768,309.169 137.283 C 310.713 135.487,310.711 135.498,309.631 135.088 L 308.788 134.768 307.237 136.267 C 300.420 142.857,292.265 146.404,286.350 145.352 C 284.625 145.045,284.728 145.160,285.090 143.945 C 286.714 138.475,297.098 103.780,297.218 103.420 C 297.364 102.981,297.344 102.952,296.913 102.981 C 296.659 102.998,296.067 103.037,295.596 103.068 M309.346 103.530 C 299.566 106.342,296.523 120.401,305.557 121.035 C 313.603 121.600,320.980 110.555,316.192 105.115 C 314.802 103.536,311.769 102.834,309.346 103.530 M344.713 103.723 C 333.525 105.077,324.806 111.277,319.969 121.320 C 313.083 135.614,318.866 147.049,333.229 147.537 L 335.975 147.630 337.101 143.888 C 337.720 141.829,340.398 132.950,343.050 124.156 C 345.703 115.361,348.174 107.168,348.541 105.949 C 348.909 104.730,349.209 103.672,349.209 103.598 C 349.209 103.400,346.836 103.467,344.713 103.723 M354.079 103.848 C 353.863 104.435,337.751 159.401,337.751 159.551 C 337.751 159.669,341.715 159.726,349.886 159.726 L 362.021 159.726 362.360 158.572 C 362.547 157.937,366.132 145.643,370.326 131.253 C 374.520 116.862,378.060 104.761,378.192 104.361 L 378.432 103.634 366.295 103.634 C 356.741 103.634,354.141 103.680,354.079 103.848 M117.999 116.194 C 117.999 116.235,118.152 116.529,118.340 116.847 C 120.922 121.224,118.864 128.519,113.466 134.117 L 112.847 134.758 133.223 134.758 C 144.429 134.758,153.572 134.701,153.540 134.630 C 153.508 134.560,153.227 134.013,152.916 133.415 C 150.126 128.059,152.246 121.420,158.269 116.656 L 158.949 116.118 138.474 116.118 C 127.213 116.118,117.999 116.152,117.999 116.194 M54.444 160.453 C 53.238 162.076,48.032 169.049,42.875 175.949 C 37.718 182.848,33.529 188.524,33.567 188.562 C 33.604 188.599,38.460 188.680,44.358 188.742 L 55.081 188.855 56.314 189.783 C 70.354 200.357,88.138 208.787,103.634 212.213 C 104.904 212.494,106.982 212.962,108.251 213.253 C 142.428 221.098,188.118 214.986,214.707 199.012 C 231.097 189.165,240.787 174.672,240.787 160.004 L 240.787 157.503 225.237 157.503 L 209.687 157.503 209.573 158.487 C 206.437 185.489,191.388 203.168,164.991 210.861 C 135.001 219.602,102.752 211.188,87.201 190.567 C 85.616 188.467,85.384 188.628,89.996 188.627 C 92.183 188.627,96.229 188.576,98.988 188.514 L 104.004 188.401 101.382 186.690 C 99.940 185.750,92.219 180.709,84.224 175.490 C 60.616 160.077,57.043 157.746,56.835 157.621 C 56.711 157.547,55.821 158.600,54.444 160.453 M117.144 230.632 C 117.144 230.767,127.394 243.593,127.548 243.651 C 127.635 243.684,132.721 232.365,133.312 230.825 C 133.420 230.543,132.969 230.526,125.286 230.526 C 120.808 230.526,117.144 230.574,117.144 230.632 M250.782 230.709 C 245.888 231.288,242.549 234.299,244.627 236.259 C 247.342 238.819,255.936 237.282,257.318 233.987 C 258.213 231.853,254.951 230.217,250.782 230.709 M108.251 231.305 C 100.519 232.964,94.473 241.099,96.339 247.333 C 96.737 248.663,108.676 263.063,109.812 263.583 C 115.071 265.989,126.037 257.059,126.037 250.369 C 126.037 248.557,125.984 248.472,119.331 239.578 L 112.954 231.053 111.159 231.060 C 110.171 231.063,108.863 231.173,108.251 231.305 M164.857 247.198 C 160.953 256.080,157.735 263.466,157.704 263.611 C 157.630 263.966,171.033 264.015,171.308 263.660 C 171.398 263.542,174.497 256.289,178.192 247.542 C 181.888 238.794,184.981 231.503,185.065 231.338 C 185.211 231.056,184.849 231.039,178.587 231.044 L 171.954 231.049 164.857 247.198 M229.072 237.389 C 225.216 238.613,221.973 239.705,221.867 239.816 C 221.599 240.094,214.525 256.102,214.296 256.947 C 213.120 261.290,216.451 264.317,222.250 264.178 L 224.269 264.130 229.178 252.758 L 234.088 241.385 236.048 241.337 L 238.008 241.289 238.328 240.483 C 238.505 240.039,238.674 239.621,238.704 239.553 C 238.734 239.485,237.878 239.408,236.800 239.381 L 234.840 239.333 235.590 237.392 C 236.360 235.398,236.433 235.136,236.212 235.154 C 236.142 235.159,232.929 236.165,229.072 237.389 M333.719 239.499 C 329.172 240.552,325.832 242.934,324.109 246.351 C 321.532 251.464,322.951 255.154,328.144 256.838 C 332.436 258.230,333.493 260.388,331.110 262.897 L 330.141 263.918 331.937 263.828 C 335.008 263.673,338.728 262.094,341.025 259.968 C 345.735 255.609,345.299 248.392,340.208 246.444 C 335.803 244.760,334.389 242.514,336.115 239.949 L 336.702 239.077 336.072 239.088 C 335.726 239.095,334.667 239.280,333.719 239.499 M344.848 239.304 C 341.677 240.547,339.742 244.621,341.801 245.718 C 343.903 246.837,347.852 243.715,347.894 240.901 C 347.917 239.393,346.506 238.654,344.848 239.304 M143.908 239.436 C 138.756 239.895,134.055 242.778,130.680 247.547 C 125.116 255.410,126.120 261.948,133.172 263.776 C 134.269 264.060,136.236 264.133,136.599 263.902 C 136.777 263.789,147.457 239.556,147.359 239.488 C 147.174 239.359,145.121 239.327,143.908 239.436 M150.412 239.803 C 150.283 240.109,147.869 245.659,145.047 252.137 L 139.916 263.915 142.425 263.828 C 148.890 263.604,153.913 260.437,157.671 254.217 C 161.072 248.587,161.186 244.269,158.009 241.399 C 155.923 239.514,150.970 238.474,150.412 239.803 M269.004 239.619 C 262.521 240.544,256.423 246.178,253.248 254.177 C 251.191 259.359,254.685 263.466,261.383 263.739 L 262.569 263.788 264.850 258.487 C 267.480 252.371,272.489 240.582,272.751 239.889 L 272.929 239.419 271.522 239.440 C 270.748 239.451,269.615 239.532,269.004 239.619 M186.183 240.658 C 185.948 241.246,184.359 245.059,182.653 249.132 C 180.947 253.205,179.484 256.899,179.400 257.341 C 178.954 259.706,180.313 261.831,183.121 263.158 C 184.601 263.858,189.300 264.237,189.527 263.675 C 189.578 263.549,191.866 258.174,194.612 251.732 C 197.357 245.289,199.643 239.921,199.692 239.803 C 199.762 239.634,198.396 239.590,193.196 239.590 L 186.612 239.590 186.183 240.658 M206.019 239.754 L 203.145 239.846 197.937 251.560 C 195.073 258.003,192.686 263.410,192.633 263.574 C 192.544 263.856,192.924 263.873,199.013 263.873 L 205.487 263.873 210.880 251.860 L 216.273 239.846 215.832 239.738 C 215.321 239.613,210.181 239.621,206.019 239.754 M288.668 251.591 C 285.821 258.098,283.455 263.562,283.410 263.733 C 283.333 264.030,283.628 264.044,289.806 264.044 L 296.283 264.044 301.375 252.159 C 304.175 245.622,306.511 240.159,306.565 240.017 C 306.651 239.792,305.883 239.761,300.254 239.761 L 293.844 239.761 288.668 251.591 M309.622 240.316 C 309.492 240.622,307.191 246.067,304.510 252.416 L 299.634 263.959 305.984 264.004 C 309.477 264.029,312.397 263.986,312.473 263.910 C 312.550 263.833,314.362 259.773,316.502 254.887 L 320.391 246.003 320.392 244.378 C 320.395 240.735,318.872 239.761,313.175 239.761 L 309.859 239.761 309.622 240.316 M241.740 240.082 C 241.668 240.199,231.974 262.743,231.602 263.660 C 231.534 263.828,232.879 263.873,237.994 263.873 L 244.472 263.873 249.427 252.060 C 252.152 245.563,254.408 240.176,254.439 240.089 C 254.513 239.885,241.866 239.878,241.740 240.082 M275.877 240.213 C 275.366 241.168,265.755 263.806,265.755 264.055 C 265.755 264.500,269.801 264.022,271.910 263.328 C 275.920 262.009,279.672 259.082,282.281 255.237 C 287.585 247.422,286.839 242.507,280.052 240.540 C 277.941 239.928,276.106 239.785,275.877 240.213 M90.142 256.989 C 88.604 260.540,87.308 263.542,87.263 263.660 C 87.197 263.829,88.947 263.873,95.664 263.873 C 100.330 263.873,104.147 263.834,104.147 263.786 C 104.147 263.661,93.210 250.629,93.061 250.576 C 92.993 250.552,91.680 253.438,90.142 256.989 M321.913 257.387 C 319.576 258.286,317.852 261.390,318.754 263.076 C 319.620 264.695,322.431 264.364,324.210 262.433 C 327.059 259.343,325.535 255.994,321.913 257.387 " stroke="none" fill="blue" fill-rule="evenodd"></path></g></svg>
